<svg width="86" height="32" viewBox="0 0 86 32" fill="none" xmlns="http://www.w3.org/2000/svg">
<mask id="mask0_8_150" style="mask-type:luminance" maskUnits="userSpaceOnUse" x="1" y="6" width="85" height="26">
<path d="M9.58417 17.2126V9.88896L13.0867 12.7026V26.7293H9.58417V21.5572H4.83989V26.7293H1.3374V12.7026L4.83989 9.88896V17.1713H9.58417V17.2126ZM81.6399 12.5785H85.3334L85.2697 12.8681L81.7036 26.0259C80.5255 30.3704 78.615 32.191 75.5901 31.9841H75.4309V27.8051H75.5901C76.9593 27.8051 77.5961 27.2672 78.0419 25.7776L73.8071 12.6198H77.5961L79.7931 20.4814L81.6399 12.5785ZM69.3175 6.33057H72.7563V26.5638H69.3175V6.33057ZM64.1274 6.33057H67.5663V26.5638H64.1274V6.33057ZM58.9692 25.6535C58.3324 26.481 57.3135 26.9776 56.1354 26.9776C53.7792 26.9776 52.0598 24.7018 52.0598 21.1434V12.5785H55.4986V20.5228C55.4986 21.971 56.1354 22.7985 57.1543 22.7985C58.3006 22.7985 58.9374 21.9296 58.9374 20.1918V12.5785H62.408V26.5638H58.9692V25.6535ZM50.7225 6.78571H50.8817V11.1303H50.7225C49.608 11.0061 49.0031 11.4613 48.9712 12.6198H50.9135V16.9644H48.9712V26.6465H45.5324V16.923H44.1314V12.5785H45.5324C45.5324 8.60629 47.3474 6.49607 50.7225 6.78571ZM40.9792 12.5785H43.1444V16.923H40.9792V21.5158C40.9792 22.3847 41.4568 22.5916 42.9533 22.4675H43.1125V26.5638H42.9852C38.9732 27.1017 37.5085 25.6535 37.5085 21.5158V16.923H35.821V12.5785H37.5085V10.0545L40.9474 8.68904V12.5785H40.9792ZM30.217 16.7575C30.217 17.0058 30.5036 17.2126 31.2041 17.5023C31.3314 17.5437 31.8409 17.7092 31.9046 17.7505C32.1911 17.8747 32.4459 17.9574 32.6687 18.0402C34.42 18.785 35.3434 20.0263 35.3434 22.302C35.3434 25.2811 33.4648 26.9776 30.822 26.9776C28.625 26.9776 27.0011 25.8604 26.1732 23.626L26.1095 23.4605L29.1344 21.2262L29.1981 21.4744C29.4528 22.4261 29.9941 22.9226 30.822 22.9226C31.4906 22.9226 31.7772 22.6744 31.7772 22.302C31.7772 22.0537 31.4906 21.8468 30.822 21.5572C30.6628 21.5158 30.0578 21.2676 30.1215 21.3089C29.8031 21.1848 29.5802 21.1021 29.3255 20.9779C27.5742 20.1918 26.6508 18.9918 26.6508 16.8816C26.6508 13.9853 28.4339 12.2061 30.9175 12.2061C32.7006 12.2061 34.2608 13.2819 35.1205 15.2266L35.216 15.3921L32.2548 17.4609L32.1911 17.2954C31.9046 16.5506 31.4906 16.2196 30.9175 16.2196C30.4717 16.1782 30.217 16.4265 30.217 16.7575ZM20.0279 22.5916C21.3334 22.5916 22.2568 21.3503 22.2568 19.6125C22.2568 17.8333 21.3016 16.6334 20.0279 16.6334C18.7225 16.6334 17.7991 17.8747 17.7991 19.6125C17.7673 21.3503 18.7225 22.5916 20.0279 22.5916ZM20.0279 26.9362C16.8439 26.9362 14.3284 23.7088 14.3284 19.5711C14.3284 15.4334 16.8439 12.2061 20.0279 12.2061C23.212 12.2061 25.7275 15.4334 25.7275 19.5711C25.7275 23.7088 23.212 26.9362 20.0279 26.9362Z" fill="white"/>
</mask>
<g mask="url(#mask0_8_150)">
<mask id="mask1_8_150" style="mask-type:luminance" maskUnits="userSpaceOnUse" x="0" y="0" width="86" height="33">
<path d="M85.3333 0H0V32.2738H85.3333V0Z" fill="white"/>
</mask>
<g mask="url(#mask1_8_150)">
<path d="M86.8934 4.26172H-0.254883V34.0943H86.8934V4.26172Z" fill="#3730A3"/>
</g>
</g>
<mask id="mask2_8_150" style="mask-type:luminance" maskUnits="userSpaceOnUse" x="0" y="0" width="15" height="11">
<path d="M14.4239 10.2614L7.22786 4.71695L0 10.2614V5.54448L7.22786 0L14.4239 5.54448V10.2614Z" fill="white"/>
</mask>
<g mask="url(#mask2_8_150)">
<mask id="mask3_8_150" style="mask-type:luminance" maskUnits="userSpaceOnUse" x="0" y="0" width="86" height="33">
<path d="M85.3333 0H0V32.2738H85.3333V0Z" fill="white"/>
</mask>
<g mask="url(#mask3_8_150)">
<path d="M16.0162 -2.06885H-1.5918V12.3303H16.0162V-2.06885Z" fill="#34D399"/>
</g>
</g>
<mask id="mask4_8_150" style="mask-type:luminance" maskUnits="userSpaceOnUse" x="7" y="0" width="8" height="11">
<path d="M14.424 10.2614L7.22803 4.71695V0L14.424 5.54448V10.2614Z" fill="white"/>
</mask>
<g mask="url(#mask4_8_150)">
<mask id="mask5_8_150" style="mask-type:luminance" maskUnits="userSpaceOnUse" x="0" y="0" width="86" height="33">
<path d="M85.3333 0H0V32.2738H85.3333V0Z" fill="white"/>
</mask>
<g mask="url(#mask5_8_150)">
<path d="M16.0477 -2.06885H5.63574V12.3303H16.0477V-2.06885Z" fill="#10B981"/>
</g>
</g>
</svg>
